<svg width="246" height="215" viewBox="0 0 246 215" fill="none" xmlns="http://www.w3.org/2000/svg">
<g filter="url(#filter0_d_948_1316)">
<rect x="84" y="80.6484" width="77" height="44.147" rx="22.0735" fill="#FFED2C" shape-rendering="crispEdges"/>
<path d="M101.904 106.382C101.139 105.701 100.756 104.735 100.756 103.484V97.1279H102.926V103.484C102.926 104.128 103.108 104.618 103.472 104.954C103.799 105.271 104.256 105.43 104.844 105.43C105.432 105.43 105.889 105.271 106.216 104.954C106.589 104.618 106.776 104.128 106.776 103.484V97.1279H108.932V103.484C108.932 104.744 108.549 105.71 107.784 106.382C107.065 107.017 106.085 107.334 104.844 107.334C103.621 107.334 102.641 107.017 101.904 106.382ZM111.163 106.34C110.407 105.677 110.01 104.8 109.973 103.708H112.101C112.138 104.193 112.344 104.599 112.717 104.926C113.081 105.262 113.52 105.43 114.033 105.43C114.5 105.43 114.873 105.332 115.153 105.136C115.442 104.931 115.587 104.665 115.587 104.338C115.587 103.825 115.228 103.461 114.509 103.246L112.997 102.826C111.233 102.35 110.351 101.351 110.351 99.8299C110.351 99.0086 110.687 98.3319 111.359 97.7999C112.031 97.2679 112.885 97.0019 113.921 97.0019C115.032 97.0019 115.932 97.2819 116.623 97.8419C117.332 98.4206 117.706 99.1766 117.743 100.11H115.615C115.559 99.7833 115.386 99.5033 115.097 99.2699C114.77 99.0273 114.378 98.9059 113.921 98.9059C113.025 98.9059 112.577 99.2093 112.577 99.8159C112.577 100.264 112.904 100.577 113.557 100.754L115.083 101.174C115.932 101.426 116.567 101.743 116.987 102.126C117.528 102.639 117.799 103.358 117.799 104.282C117.799 105.197 117.458 105.934 116.777 106.494C116.086 107.045 115.172 107.32 114.033 107.32C112.857 107.32 111.9 106.993 111.163 106.34ZM125.952 97.1279V99.0179H121.248V100.95H124.986V102.84H121.248V105.318H126.106V107.222H119.078V97.1279H125.952ZM131.789 97.1279C132.787 97.1279 133.59 97.4079 134.197 97.9679C134.794 98.5279 135.093 99.2793 135.093 100.222C135.093 101.37 134.607 102.224 133.637 102.784C134.234 103.101 134.617 103.652 134.785 104.436L135.121 105.976C135.233 106.517 135.377 106.933 135.555 107.222H133.175C133.053 107.017 132.955 106.718 132.881 106.326L132.643 104.856C132.54 104.296 132.33 103.899 132.013 103.666C131.686 103.423 131.187 103.302 130.515 103.302H129.479V107.222H127.309V97.1279H131.789ZM131.439 101.398C132.4 101.398 132.881 101.006 132.881 100.222C132.881 99.4286 132.4 99.0319 131.439 99.0319H129.479V101.398H131.439ZM137.044 106.34C136.288 105.677 135.891 104.8 135.854 103.708H137.982C138.019 104.193 138.225 104.599 138.598 104.926C138.962 105.262 139.401 105.43 139.914 105.43C140.381 105.43 140.754 105.332 141.034 105.136C141.323 104.931 141.468 104.665 141.468 104.338C141.468 103.825 141.109 103.461 140.39 103.246L138.878 102.826C137.114 102.35 136.232 101.351 136.232 99.8299C136.232 99.0086 136.568 98.3319 137.24 97.7999C137.912 97.2679 138.766 97.0019 139.802 97.0019C140.913 97.0019 141.813 97.2819 142.504 97.8419C143.213 98.4206 143.587 99.1766 143.624 100.11H141.496C141.44 99.7833 141.267 99.5033 140.978 99.2699C140.651 99.0273 140.259 98.9059 139.802 98.9059C138.906 98.9059 138.458 99.2093 138.458 99.8159C138.458 100.264 138.785 100.577 139.438 100.754L140.964 101.174C141.813 101.426 142.448 101.743 142.868 102.126C143.409 102.639 143.68 103.358 143.68 104.282C143.68 105.197 143.339 105.934 142.658 106.494C141.967 107.045 141.053 107.32 139.914 107.32C138.738 107.32 137.781 106.993 137.044 106.34Z" fill="#0F1213"/>
</g>
<g filter="url(#filter1_d_948_1316)">
<path fill-rule="evenodd" clip-rule="evenodd" d="M152.839 141.808C151.931 139.641 151.239 135.535 149.435 130.282C148.41 127.309 145.455 121.425 144.85 118.687C144.336 116.273 144.719 115.362 145.468 113.69C146.8 110.715 150.66 109.187 153.965 110.462C156.463 111.422 158.165 113.725 159.675 115.874C160.587 117.168 161.517 119.448 162.097 120.751C162.632 121.945 162.718 122.401 163.258 123.788C163.971 125.624 164.117 126.475 164.148 124.682C164.483 122.132 165.079 117.784 165.283 113.849C165.435 110.864 165.405 110.381 165.404 108.057C165.407 105.585 165.53 103.887 165.611 101.287C165.677 99.4506 165.912 95.7268 166.262 93.6926C166.736 90.9095 167.82 86.4581 170.122 84.9159C171.925 83.7088 175.178 84.1009 176.838 85.62C179.011 87.6078 179.422 91.6881 179.67 93.3402C180.114 96.3104 179.993 99.5653 179.512 103.748C178.898 109.072 178.415 116.564 178.048 118.066C178.677 116.275 179.295 112.306 180.101 110.644C180.831 109.137 182.681 107.666 184.491 107.634C186.023 107.609 187.722 107.918 189.096 108.627C190.555 109.376 191.877 110.94 192.194 112.153C193.122 115.738 191.395 122.051 191.563 121.735C192.508 119.995 193.612 115.757 195.155 114.297C196.171 113.333 198.227 112.783 199.213 112.877C200.739 113.027 202.546 113.446 203.99 114.17C205.154 114.756 206.411 116.685 206.665 117.513C207.267 119.514 206.536 124.496 206.248 126.233C206.127 126.951 207.155 124.397 208.713 122.999C211.603 120.401 218.879 121.773 217.214 128.78C216.434 132.048 216.451 131.893 215.843 134.068C215.129 136.624 214.64 138.145 213.985 139.956C213.279 141.891 211.605 146.241 210.382 148.234C209.541 149.603 207.197 152.557 205.247 154.176C205.247 154.176 198.21 158.872 196.854 161.494C195.494 164.109 195.682 164.183 195.017 166.124C194.353 168.06 194.341 170.849 194.341 170.849C194.341 170.849 190.232 170.255 188.192 169.318C186.346 168.466 185.028 163.951 184.739 162.602C184.341 160.742 182.44 160.547 181.399 161.546C179.757 163.128 176.415 165.856 174.665 165.596C171.246 165.089 164.467 162.912 159.118 161.359C159.118 161.359 161.429 156.616 159.872 154.332C158.722 152.63 156.851 149.309 155.68 147.511L152.839 141.808Z" fill="#CCBE24"/>
<path fill-rule="evenodd" clip-rule="evenodd" d="M152.839 141.808C151.931 139.641 151.239 135.535 149.435 130.282C148.41 127.309 145.455 121.425 144.85 118.687C144.336 116.273 144.719 115.362 145.468 113.69C146.8 110.715 150.66 109.187 153.965 110.462C156.463 111.422 158.165 113.725 159.675 115.874C160.587 117.168 161.517 119.448 162.097 120.751C162.632 121.945 162.718 122.401 163.258 123.788C163.971 125.624 164.117 126.475 164.148 124.682C164.483 122.132 165.079 117.784 165.283 113.849C165.435 110.864 165.405 110.381 165.404 108.057C165.407 105.585 165.53 103.887 165.611 101.287C165.677 99.4506 165.912 95.7268 166.262 93.6926C166.736 90.9095 167.82 86.4581 170.122 84.9159C171.925 83.7088 175.178 84.1009 176.838 85.62C179.011 87.6078 179.422 91.6881 179.67 93.3402C180.114 96.3104 179.993 99.5653 179.512 103.748C178.898 109.072 178.415 116.564 178.048 118.066C178.677 116.275 179.295 112.306 180.101 110.644C180.831 109.137 182.681 107.666 184.491 107.634C186.023 107.609 187.722 107.918 189.096 108.627C190.555 109.376 191.877 110.94 192.194 112.153C193.122 115.738 191.395 122.051 191.563 121.735C192.508 119.995 193.612 115.757 195.155 114.297C196.171 113.333 198.227 112.783 199.213 112.877C200.739 113.027 202.546 113.446 203.99 114.17C205.154 114.756 206.411 116.685 206.665 117.513C207.267 119.514 206.536 124.496 206.248 126.233C206.127 126.951 207.155 124.397 208.713 122.999C211.603 120.401 218.879 121.773 217.214 128.78C216.434 132.048 216.451 131.893 215.843 134.068C215.129 136.624 214.64 138.145 213.985 139.956C213.279 141.891 211.605 146.241 210.382 148.234C209.541 149.603 207.197 152.557 205.247 154.176C205.247 154.176 198.21 158.872 196.854 161.494C195.494 164.109 195.682 164.183 195.017 166.124C194.353 168.06 194.341 170.849 194.341 170.849C194.341 170.849 190.232 170.255 188.192 169.318C186.346 168.466 185.028 163.951 184.739 162.602C184.341 160.742 182.44 160.547 181.399 161.546C179.757 163.128 176.415 165.856 174.665 165.596C171.246 165.089 164.467 162.912 159.118 161.359C159.118 161.359 161.429 156.616 159.872 154.332C158.722 152.63 156.851 149.309 155.68 147.511L152.839 141.808V141.808Z" fill="#FFFBD5" stroke="#CCBE24" stroke-width="6.16004" stroke-linecap="round" stroke-linejoin="round"/>
<path d="M188.311 133.161C189.336 133.443 189.939 134.502 189.658 135.527L184.939 152.72C184.658 153.745 183.598 154.348 182.573 154.067C181.548 153.785 180.945 152.726 181.226 151.701L185.945 134.508C186.226 133.483 187.286 132.88 188.311 133.161Z" fill="#CCBE24"/>
<path d="M198.361 135.981C199.384 136.267 199.983 137.329 199.696 138.353L194.918 155.454C194.632 156.478 193.57 157.076 192.546 156.79C191.522 156.504 190.924 155.442 191.21 154.418L195.988 137.317C196.275 136.293 197.337 135.695 198.361 135.981Z" fill="#CCBE24"/>
<path d="M179.825 132.945C180.105 131.919 179.501 130.861 178.475 130.581C177.449 130.301 176.391 130.906 176.111 131.931L171.482 148.898C171.202 149.924 171.807 150.982 172.833 151.262C173.858 151.542 174.917 150.937 175.196 149.912L179.825 132.945Z" fill="#CCBE24"/>
</g>
<defs>
<filter id="filter0_d_948_1316" x="0" y="0.648438" width="245" height="212.147" filterUnits="userSpaceOnUse" color-interpolation-filters="sRGB">
<feFlood flood-opacity="0" result="BackgroundImageFix"/>
<feColorMatrix in="SourceAlpha" type="matrix" values="0 0 0 0 0 0 0 0 0 0 0 0 0 0 0 0 0 0 127 0" result="hardAlpha"/>
<feOffset dy="4"/>
<feGaussianBlur stdDeviation="42"/>
<feComposite in2="hardAlpha" operator="out"/>
<feColorMatrix type="matrix" values="0 0 0 0 0 0 0 0 0 0 0 0 0 0 0 0 0 0 0.45 0"/>
<feBlend mode="normal" in2="BackgroundImageFix" result="effect1_dropShadow_948_1316"/>
<feBlend mode="normal" in="SourceGraphic" in2="effect1_dropShadow_948_1316" result="shape"/>
</filter>
<filter id="filter1_d_948_1316" x="106.729" y="67.7866" width="145.542" height="149.105" filterUnits="userSpaceOnUse" color-interpolation-filters="sRGB">
<feFlood flood-opacity="0" result="BackgroundImageFix"/>
<feColorMatrix in="SourceAlpha" type="matrix" values="0 0 0 0 0 0 0 0 0 0 0 0 0 0 0 0 0 0 127 0" result="hardAlpha"/>
<feOffset dy="16.4268"/>
<feGaussianBlur stdDeviation="12.3201"/>
<feColorMatrix type="matrix" values="0 0 0 0 0 0 0 0 0 0 0 0 0 0 0 0 0 0 0.402655 0"/>
<feBlend mode="normal" in2="BackgroundImageFix" result="effect1_dropShadow_948_1316"/>
<feBlend mode="normal" in="SourceGraphic" in2="effect1_dropShadow_948_1316" result="shape"/>
</filter>
</defs>
</svg>
