<svg width="1551" height="895" viewBox="0 0 1551 895" fill="none" xmlns="http://www.w3.org/2000/svg">
<g clip-path="url(#clip0_948_1269)">
<mask id="mask0_948_1269" style="mask-type:alpha" maskUnits="userSpaceOnUse" x="0" y="0" width="1551" height="895">
<rect width="1551" height="895" fill="url(#paint0_linear_948_1269)"/>
</mask>
<g mask="url(#mask0_948_1269)">
<g opacity="0.2" filter="url(#filter0_f_948_1269)">
<path d="M386 409.5C386 624.615 560.385 799 775.5 799C990.615 799 1165 624.615 1165 409.5C1165 194.385 990.615 20 775.5 20C560.385 20 386 194.385 386 409.5Z" fill="#FFED2C"/>
</g>
<path opacity="0.12" d="M317.608 346.004L352.826 366.337M352.826 366.337L423.261 407.004M352.826 366.337L423.261 325.671M352.826 366.337L317.608 386.671M423.261 407.004L493.697 447.67M423.261 407.004L493.697 366.337M423.261 407.004L388.044 427.337M493.697 447.67L564.133 488.336M493.697 447.67L564.133 407.004M493.697 447.67L458.479 468.003M564.133 488.336L634.569 529.002M564.133 488.336L634.569 447.67M564.133 488.336L528.915 508.669M634.569 529.002L669.786 549.335M634.569 529.002L705.004 488.336M634.569 529.002L599.351 549.335M388.044 305.338L423.261 325.671M423.261 325.671L493.697 366.337M423.261 325.671L493.697 285.005M493.697 366.337L564.133 407.004M493.697 366.337L564.133 325.671M564.133 407.004L634.569 447.67M564.133 407.004L634.569 366.338M634.569 447.67L705.004 488.336M634.569 447.67L705.004 407.004M705.004 488.336L740.222 508.669M705.004 488.336L775.44 447.67M458.479 264.672L493.697 285.005M493.697 285.005L564.133 325.671M493.697 285.005L564.133 244.339M564.133 325.671L634.569 366.338M564.133 325.671L634.569 285.005M634.569 366.338L705.004 407.004M634.569 366.338L705.004 325.671M705.004 407.004L775.44 447.67M705.004 407.004L775.44 366.337M775.44 447.67L810.658 468.003M775.44 447.67L845.876 407.004M528.915 224.006L564.133 244.339M564.133 244.339L634.569 285.005M564.133 244.339L634.569 203.673M634.569 285.005L705.004 325.671M634.569 285.005L705.004 244.339M705.004 325.671L775.44 366.337M705.004 325.671L775.44 285.005M775.44 366.337L845.876 407.004M775.44 366.337L845.876 325.671M845.876 407.004L881.094 427.337M845.876 407.004L916.311 366.338M599.351 183.34L634.569 203.673M634.569 203.673L705.004 244.339M634.569 203.673L669.786 183.34M705.004 244.339L775.44 285.005M705.004 244.339L740.222 224.006M775.44 285.005L845.876 325.671M775.44 285.005L810.658 264.672M845.876 325.671L916.311 366.338M845.876 325.671L881.094 305.338M916.311 366.338L951.529 386.671M916.311 366.338L951.529 346.004M35.2179 509.042L70.4357 529.376M70.4357 529.376L140.871 570.042M70.4357 529.376L140.871 488.709M70.4357 529.376L35.2179 549.709M140.871 570.042L211.307 610.708M140.871 570.042L211.307 529.376M140.871 570.042L105.654 590.375M211.307 610.708L281.743 651.374M211.307 610.708L281.743 570.042M211.307 610.708L176.089 631.041M281.743 651.374L352.178 692.04M281.743 651.374L352.179 610.708M281.743 651.374L246.525 671.707M352.178 692.04L387.396 712.373M352.178 692.04L422.614 651.374M352.178 692.04L316.961 712.373M105.654 468.376L140.871 488.709M140.871 488.709L211.307 529.376M140.871 488.709L211.307 448.043M211.307 529.376L281.743 570.042M211.307 529.376L281.743 488.709M281.743 570.042L352.179 610.708M281.743 570.042L352.179 529.376M352.179 610.708L422.614 651.374M352.179 610.708L422.614 570.042M422.614 651.374L457.832 671.707M422.614 651.374L493.05 610.708M176.089 427.71L211.307 448.043M211.307 448.043L281.743 488.709M211.307 448.043L281.743 407.377M281.743 488.709L352.179 529.376M281.743 488.709L352.179 448.043M352.179 529.376L422.614 570.042M352.179 529.376L422.614 488.709M422.614 570.042L493.05 610.708M422.614 570.042L493.05 529.376M493.05 610.708L528.268 631.041M493.05 610.708L563.486 570.042M246.525 387.044L281.743 407.377M281.743 407.377L352.179 448.043M281.743 407.377L352.179 366.711M352.179 448.043L422.614 488.709M352.179 448.043L422.614 407.377M422.614 488.709L493.05 529.376M422.614 488.709L493.05 448.043M493.05 529.376L563.486 570.042M493.05 529.376L563.486 488.709M563.486 570.042L598.703 590.375M563.486 570.042L633.921 529.376M316.961 346.378L352.179 366.711M352.179 366.711L422.614 407.377M352.179 366.711L387.396 346.378M422.614 407.377L493.05 448.043M422.614 407.377L457.832 387.044M493.05 448.043L563.486 488.709M493.05 448.043L528.268 427.71M563.486 488.709L633.921 529.376M563.486 488.709L598.703 468.376M633.921 529.376L669.139 549.709M633.921 529.376L669.139 509.042M881.688 20.333L916.906 40.666M916.906 40.666L987.341 81.3321M916.906 40.666L846.47 81.3321M916.906 40.666L952.123 20.333M987.341 81.3321L1057.78 121.998M987.341 81.3321L916.906 121.998M987.341 81.3321L1022.56 60.9991M1057.78 121.998L1128.21 162.664M1057.78 121.998L987.341 162.664M1057.78 121.998L1092.99 101.665M1128.21 162.664L1198.65 203.33M1128.21 162.664L1057.78 203.33M1128.21 162.664L1163.43 142.331M1198.65 203.33L1233.87 223.663M1198.65 203.33L1128.21 243.996M1198.65 203.33L1233.87 182.997M811.252 60.999L846.47 81.3321M846.47 81.3321L916.906 121.998M846.47 81.3321L776.034 121.998M916.906 121.998L987.341 162.664M916.906 121.998L846.47 162.664M987.341 162.664L1057.78 203.33M987.341 162.664L916.906 203.33M1057.78 203.33L1128.21 243.996M1057.78 203.33L987.341 243.996M1128.21 243.996L1163.43 264.329M1128.21 243.996L1057.78 284.662M740.816 101.665L776.034 121.998M776.034 121.998L846.47 162.664M776.034 121.998L705.599 162.664M846.47 162.664L916.906 203.33M846.47 162.664L776.034 203.33M916.906 203.33L987.341 243.996M916.906 203.33L846.47 243.996M987.341 243.996L1057.78 284.662M987.341 243.996L916.906 284.662M1057.78 284.662L1092.99 304.995M1057.78 284.662L987.341 325.328M670.381 142.331L705.599 162.664M705.599 162.664L776.034 203.33M705.599 162.664L635.163 203.33M776.034 203.33L846.47 243.996M776.034 203.33L705.599 243.996M846.47 243.996L916.906 284.662M846.47 243.996L776.034 284.662M916.906 284.662L987.341 325.328M916.906 284.662L846.47 325.329M987.341 325.328L1022.56 345.662M987.341 325.328L916.906 365.995M599.945 182.997L635.163 203.33M635.163 203.33L705.599 243.996M635.163 203.33L599.945 223.663M705.599 243.996L776.034 284.662M705.599 243.996L670.381 264.329M776.034 284.662L846.47 325.329M776.034 284.662L740.816 304.995M846.47 325.329L916.906 365.995M846.47 325.329L811.252 345.662M916.906 365.995L952.123 386.328M916.906 365.995L881.688 386.328M599.355 508.671L634.573 529.004M634.573 529.004L705.009 569.67M634.573 529.004L705.009 488.338M634.573 529.004L599.355 549.337M705.009 569.67L775.444 610.336M705.009 569.67L775.444 529.004M705.009 569.67L669.791 590.003M775.444 610.336L845.88 651.003M775.444 610.336L845.88 569.67M775.444 610.336L740.227 630.67M845.88 651.003L916.316 691.669M845.88 651.003L916.316 610.337M845.88 651.003L810.662 671.336M916.316 691.669L951.534 712.002M916.316 691.669L986.752 651.003M916.316 691.669L881.098 712.002M669.791 468.005L705.009 488.338M705.009 488.338L775.444 529.004M705.009 488.338L775.444 447.672M775.444 529.004L845.88 569.67M775.444 529.004L845.88 488.338M845.88 569.67L916.316 610.337M845.88 569.67L916.316 529.004M916.316 610.337L986.752 651.003M916.316 610.337L986.752 569.67M986.752 651.003L1021.97 671.336M986.752 651.003L1057.19 610.337M740.227 427.339L775.444 447.672M775.444 447.672L845.88 488.338M775.444 447.672L845.88 407.006M845.88 488.338L916.316 529.004M845.88 488.338L916.316 447.672M916.316 529.004L986.752 569.67M916.316 529.004L986.752 488.338M986.752 569.67L1057.19 610.337M986.752 569.67L1057.19 529.004M1057.19 610.337L1092.41 630.67M1057.19 610.337L1127.62 569.67M810.662 386.673L845.88 407.006M845.88 407.006L916.316 447.672M845.88 407.006L916.316 366.34M916.316 447.672L986.752 488.338M916.316 447.672L986.752 407.006M986.752 488.338L1057.19 529.004M986.752 488.338L1057.19 447.672M1057.19 529.004L1127.62 569.67M1057.19 529.004L1127.62 488.338M1127.62 569.67L1162.84 590.003M1127.62 569.67L1198.06 529.004M881.098 346.007L916.316 366.34M916.316 366.34L986.752 407.006M916.316 366.34L951.534 346.007M986.752 407.006L1057.19 447.672M986.752 407.006L1021.97 386.673M1057.19 447.672L1127.62 488.338M1057.19 447.672L1092.41 427.339M1127.62 488.338L1198.06 529.004M1127.62 488.338L1162.84 468.005M1198.06 529.004L1233.28 549.337M1198.06 529.004L1233.28 508.671M316.965 671.709L352.183 692.042M352.183 692.042L422.619 732.708M352.183 692.042L422.619 651.376M352.183 692.042L316.965 712.375M422.619 732.708L493.054 773.375M422.619 732.708L493.054 692.042M422.619 732.708L387.401 753.041M493.054 773.375L563.49 814.041M493.054 773.375L563.49 732.708M493.054 773.375L457.837 793.708M563.49 814.041L633.926 854.707M563.49 814.041L633.926 773.375M563.49 814.041L528.272 834.374M633.926 854.707L669.144 875.04M633.926 854.707L704.361 814.041M633.926 854.707L598.708 875.04M387.401 631.043L422.619 651.376M422.619 651.376L493.054 692.042M422.619 651.376L493.054 610.71M493.054 692.042L563.49 732.708M493.054 692.042L563.49 651.376M563.49 732.708L633.926 773.375M563.49 732.708L633.926 692.042M633.926 773.375L704.361 814.041M633.926 773.375L704.362 732.708M704.361 814.041L739.579 834.374M704.361 814.041L774.797 773.375M457.837 590.377L493.054 610.71M493.054 610.71L563.49 651.376M493.054 610.71L563.49 570.044M563.49 651.376L633.926 692.042M563.49 651.376L633.926 610.71M633.926 692.042L704.362 732.708M633.926 692.042L704.362 651.376M704.362 732.708L774.797 773.375M704.362 732.708L774.797 692.042M774.797 773.375L810.015 793.708M774.797 773.375L845.233 732.708M528.272 549.711L563.49 570.044M563.49 570.044L633.926 610.71M563.49 570.044L633.926 529.378M633.926 610.71L704.362 651.376M633.926 610.71L704.361 570.044M704.362 651.376L774.797 692.042M704.362 651.376L774.797 610.71M774.797 692.042L845.233 732.708M774.797 692.042L845.233 651.376M845.233 732.708L880.451 753.041M845.233 732.708L915.669 692.042M598.708 509.045L633.926 529.378M633.926 529.378L704.361 570.044M633.926 529.378L669.144 509.045M704.361 570.044L774.797 610.71M704.361 570.044L739.579 549.711M774.797 610.71L845.233 651.376M774.797 610.71L810.015 590.377M845.233 651.376L915.669 692.042M845.233 651.376L880.451 631.043M915.669 692.042L950.886 712.375M915.669 692.042L950.886 671.709M1163.44 183L1198.65 203.333M1198.65 203.333L1269.09 243.999M1198.65 203.333L1128.22 243.999M1198.65 203.333L1233.87 183M1269.09 243.999L1339.52 284.665M1269.09 243.999L1198.65 284.665M1269.09 243.999L1304.31 223.666M1339.52 284.665L1409.96 325.331M1339.52 284.665L1269.09 325.331M1339.52 284.665L1374.74 264.332M1409.96 325.331L1480.4 365.997M1409.96 325.331L1339.52 365.997M1409.96 325.331L1445.18 304.998M1480.4 365.997L1515.61 386.33M1480.4 365.997L1409.96 406.663M1480.4 365.997L1515.61 345.664M1093 223.666L1128.22 243.999M1128.22 243.999L1198.65 284.665M1128.22 243.999L1057.78 284.665M1198.65 284.665L1269.09 325.331M1198.65 284.665L1128.22 325.331M1269.09 325.331L1339.52 365.997M1269.09 325.331L1198.65 365.997M1339.52 365.997L1409.96 406.663M1339.52 365.997L1269.09 406.663M1409.96 406.663L1445.18 426.996M1409.96 406.663L1339.52 447.329M1022.56 264.332L1057.78 284.665M1057.78 284.665L1128.22 325.331M1057.78 284.665L987.346 325.331M1128.22 325.331L1198.65 365.997M1128.22 325.331L1057.78 365.997M1198.65 365.997L1269.09 406.663M1198.65 365.997L1128.22 406.663M1269.09 406.663L1339.52 447.329M1269.09 406.663L1198.65 447.329M1339.52 447.329L1374.74 467.662M1339.52 447.329L1269.09 487.995M952.128 304.998L987.346 325.331M987.346 325.331L1057.78 365.997M987.346 325.331L916.91 365.997M1057.78 365.997L1128.22 406.663M1057.78 365.997L987.346 406.663M1128.22 406.663L1198.65 447.329M1128.22 406.663L1057.78 447.329M1198.65 447.329L1269.09 487.995M1198.65 447.329L1128.22 487.995M1269.09 487.995L1304.31 508.328M1269.09 487.995L1198.65 528.661M881.692 345.664L916.91 365.997M916.91 365.997L987.346 406.663M916.91 365.997L881.692 386.33M987.346 406.663L1057.78 447.329M987.346 406.663L952.128 426.996M1057.78 447.329L1128.22 487.995M1057.78 447.329L1022.56 467.662M1128.22 487.995L1198.65 528.661M1128.22 487.995L1093 508.328M1198.65 528.661L1233.87 548.994M1198.65 528.661L1163.44 548.994" stroke="url(#paint1_radial_948_1269)" stroke-width="2.71107" stroke-linecap="round"/>
</g>
</g>
<defs>
<filter id="filter0_f_948_1269" x="72" y="-294" width="1407" height="1407" filterUnits="userSpaceOnUse" color-interpolation-filters="sRGB">
<feFlood flood-opacity="0" result="BackgroundImageFix"/>
<feBlend mode="normal" in="SourceGraphic" in2="BackgroundImageFix" result="shape"/>
<feGaussianBlur stdDeviation="157" result="effect1_foregroundBlur_948_1269"/>
</filter>
<linearGradient id="paint0_linear_948_1269" x1="775.5" y1="0" x2="775.5" y2="895" gradientUnits="userSpaceOnUse">
<stop stop-color="#D9D9D9" stop-opacity="0"/>
<stop offset="0.238701" stop-color="#A8A8A8"/>
<stop offset="0.789854" stop-color="#A8A8A8"/>
<stop offset="1" stop-color="#737373" stop-opacity="0"/>
</linearGradient>
<radialGradient id="paint1_radial_948_1269" cx="0" cy="0" r="1" gradientUnits="userSpaceOnUse" gradientTransform="translate(766.939 513.417) rotate(-21.6835) scale(514.915 301.317)">
<stop stop-color="#FFED2C"/>
<stop offset="1" stop-color="#998E1B" stop-opacity="0"/>
</radialGradient>
<clipPath id="clip0_948_1269">
<rect width="1551" height="895" fill="white"/>
</clipPath>
</defs>
</svg>
