<svg width="428" height="339" viewBox="0 0 428 339" fill="none" xmlns="http://www.w3.org/2000/svg">
<g filter="url(#filter0_b_948_1286)">
<path d="M235.172 31.9306L371.279 68.4002L271.642 168.037L135.535 131.567L235.172 31.9306Z" fill="#161919"/>
<path d="M272.247 170.295L408.353 206.764L308.716 306.401L172.61 269.931L272.247 170.295Z" fill="#161919"/>
<path d="M273.463 169.667L373.1 70.0303L409.57 206.137L309.933 305.774L273.463 169.667Z" fill="#161919"/>
<path d="M271.042 170.316L134.935 133.846L171.405 269.953L307.511 306.423L271.042 170.316Z" fill="#161919"/>
<rect width="140.908" height="140.908" transform="matrix(0.965926 0.258819 -0.707107 0.707107 235.174 31.9304)" fill="url(#paint0_radial_948_1286)" stroke="#FFED2C" stroke-width="4.38901" stroke-linejoin="round"/>
<path d="M272.246 170.292L408.353 206.761L308.716 306.398L172.609 269.929L272.246 170.292Z" fill="url(#paint1_radial_948_1286)" stroke="#332F09" stroke-width="4.38901" stroke-linejoin="round"/>
<path d="M273.467 169.669L373.104 70.032L409.573 206.139L309.936 305.775L273.467 169.669Z" fill="url(#paint2_radial_948_1286)" stroke="#FFED2C" stroke-width="4.38901" stroke-linejoin="round"/>
<path d="M271.043 170.314L134.936 133.845L171.406 269.951L307.513 306.421L271.043 170.314Z" fill="url(#paint3_radial_948_1286)" stroke="#FFED2C" stroke-width="4.38901" stroke-linejoin="round"/>
</g>
<g filter="url(#filter1_d_948_1286)">
<rect x="84" y="86.4448" width="180" height="44.147" rx="22.0735" fill="#FFED2C" shape-rendering="crispEdges"/>
<path d="M103.01 102.924V111.1H107.602V113.018H100.84V102.924H103.01ZM110.776 102.924V113.018H108.606V102.924H110.776ZM119.671 109.798C119.979 109.257 120.133 108.646 120.133 107.964C120.133 107.04 119.858 106.266 119.307 105.64C118.747 105.015 118.042 104.702 117.193 104.702C116.334 104.702 115.625 105.015 115.065 105.64C114.514 106.266 114.239 107.04 114.239 107.964C114.239 108.898 114.514 109.677 115.065 110.302C115.606 110.918 116.316 111.226 117.193 111.226C117.557 111.226 117.912 111.161 118.257 111.03L116.661 109.294L118.061 108.048L119.671 109.798ZM113.497 111.66C112.517 110.68 112.027 109.448 112.027 107.964C112.027 106.48 112.517 105.253 113.497 104.282C114.477 103.302 115.714 102.812 117.207 102.812C118.672 102.812 119.9 103.298 120.889 104.268C121.86 105.258 122.345 106.49 122.345 107.964C122.345 109.318 121.939 110.461 121.127 111.394L122.373 112.752L121.001 113.984L119.671 112.556C118.924 112.939 118.103 113.13 117.207 113.13C115.714 113.13 114.477 112.64 113.497 111.66ZM124.64 112.178C123.875 111.497 123.492 110.531 123.492 109.28V102.924H125.662V109.28C125.662 109.924 125.844 110.414 126.208 110.75C126.535 111.068 126.992 111.226 127.58 111.226C128.168 111.226 128.626 111.068 128.952 110.75C129.326 110.414 129.512 109.924 129.512 109.28V102.924H131.668V109.28C131.668 110.54 131.286 111.506 130.52 112.178C129.802 112.813 128.822 113.13 127.58 113.13C126.358 113.13 125.378 112.813 124.64 112.178ZM135.453 102.924V113.018H133.283V102.924H135.453ZM140.541 102.924C142.034 102.924 143.252 103.335 144.195 104.156C145.249 105.071 145.777 106.34 145.777 107.964C145.777 109.598 145.249 110.872 144.195 111.786C143.261 112.608 142.043 113.018 140.541 113.018H137.139V102.924H140.541ZM140.331 111.114C141.245 111.114 141.987 110.886 142.557 110.428C143.219 109.878 143.551 109.056 143.551 107.964C143.551 106.882 143.219 106.065 142.557 105.514C141.987 105.057 141.245 104.828 140.331 104.828H139.309V111.114H140.331ZM149.194 102.924V113.018H147.024V102.924H149.194ZM150.207 104.814V102.924H158.383V104.814H155.373V113.018H153.217V104.814H150.207ZM158.641 102.924H160.993L163.163 106.774L165.375 102.924H167.713L164.255 108.846V113.018H162.085V108.846L158.641 102.924ZM175.457 102.924C176.465 102.924 177.267 103.223 177.865 103.82C178.453 104.399 178.747 105.164 178.747 106.116C178.747 107.022 178.453 107.773 177.865 108.37C177.23 109.005 176.427 109.322 175.457 109.322H173.147V113.018H170.977V102.924H175.457ZM175.107 107.418C175.555 107.418 175.905 107.292 176.157 107.04C176.409 106.807 176.535 106.499 176.535 106.116C176.535 105.743 176.409 105.435 176.157 105.192C175.895 104.95 175.545 104.828 175.107 104.828H173.147V107.418H175.107ZM184.261 102.924C185.26 102.924 186.063 103.204 186.669 103.764C187.267 104.324 187.565 105.076 187.565 106.018C187.565 107.166 187.08 108.02 186.109 108.58C186.707 108.898 187.089 109.448 187.257 110.232L187.593 111.772C187.705 112.314 187.85 112.729 188.027 113.018H185.647C185.526 112.813 185.428 112.514 185.353 112.122L185.115 110.652C185.013 110.092 184.803 109.696 184.485 109.462C184.159 109.22 183.659 109.098 182.987 109.098H181.951V113.018H179.781V102.924H184.261ZM183.911 107.194C184.873 107.194 185.353 106.802 185.353 106.018C185.353 105.225 184.873 104.828 183.911 104.828H181.951V107.194H183.911ZM189.909 111.66C188.929 110.68 188.439 109.448 188.439 107.964C188.439 106.48 188.929 105.253 189.909 104.282C190.889 103.302 192.126 102.812 193.619 102.812C195.085 102.812 196.312 103.298 197.301 104.268C198.272 105.258 198.757 106.49 198.757 107.964C198.757 109.458 198.272 110.69 197.301 111.66C196.321 112.64 195.094 113.13 193.619 113.13C192.126 113.13 190.889 112.64 189.909 111.66ZM195.719 110.302C196.27 109.677 196.545 108.898 196.545 107.964C196.545 107.04 196.27 106.266 195.719 105.64C195.159 105.015 194.455 104.702 193.605 104.702C192.747 104.702 192.037 105.015 191.477 105.64C190.927 106.266 190.651 107.04 190.651 107.964C190.651 108.898 190.927 109.677 191.477 110.302C192.019 110.918 192.728 111.226 193.605 111.226C194.455 111.226 195.159 110.918 195.719 110.302ZM200.981 102.924L203.487 110.134L205.993 102.924H208.275L204.537 113.018H202.353L198.629 102.924H200.981ZM211.305 102.924V113.018H209.135V102.924H211.305ZM216.392 102.924C217.886 102.924 219.104 103.335 220.046 104.156C221.101 105.071 221.628 106.34 221.628 107.964C221.628 109.598 221.101 110.872 220.046 111.786C219.113 112.608 217.895 113.018 216.392 113.018H212.99V102.924H216.392ZM216.182 111.114C217.097 111.114 217.839 110.886 218.408 110.428C219.071 109.878 219.402 109.056 219.402 107.964C219.402 106.882 219.071 106.065 218.408 105.514C217.839 105.057 217.097 104.828 216.182 104.828H215.16V111.114H216.182ZM229.749 102.924V104.814H225.045V106.746H228.783V108.636H225.045V111.114H229.903V113.018H222.875V102.924H229.749ZM235.586 102.924C236.584 102.924 237.387 103.204 237.994 103.764C238.591 104.324 238.89 105.076 238.89 106.018C238.89 107.166 238.404 108.02 237.434 108.58C238.031 108.898 238.414 109.448 238.582 110.232L238.918 111.772C239.03 112.314 239.174 112.729 239.352 113.018H236.972C236.85 112.813 236.752 112.514 236.678 112.122L236.44 110.652C236.337 110.092 236.127 109.696 235.81 109.462C235.483 109.22 234.984 109.098 234.312 109.098H233.276V113.018H231.106V102.924H235.586ZM235.236 107.194C236.197 107.194 236.678 106.802 236.678 106.018C236.678 105.225 236.197 104.828 235.236 104.828H233.276V107.194H235.236ZM240.841 112.136C240.085 111.474 239.688 110.596 239.651 109.504H241.779C241.816 109.99 242.021 110.396 242.395 110.722C242.759 111.058 243.197 111.226 243.711 111.226C244.177 111.226 244.551 111.128 244.831 110.932C245.12 110.727 245.265 110.461 245.265 110.134C245.265 109.621 244.905 109.257 244.187 109.042L242.675 108.622C240.911 108.146 240.029 107.148 240.029 105.626C240.029 104.805 240.365 104.128 241.037 103.596C241.709 103.064 242.563 102.798 243.599 102.798C244.709 102.798 245.61 103.078 246.301 103.638C247.01 104.217 247.383 104.973 247.421 105.906H245.293C245.237 105.58 245.064 105.3 244.775 105.066C244.448 104.824 244.056 104.702 243.599 104.702C242.703 104.702 242.255 105.006 242.255 105.612C242.255 106.06 242.581 106.373 243.235 106.55L244.761 106.97C245.61 107.222 246.245 107.54 246.665 107.922C247.206 108.436 247.477 109.154 247.477 110.078C247.477 110.993 247.136 111.73 246.455 112.29C245.764 112.841 244.849 113.116 243.711 113.116C242.535 113.116 241.578 112.79 240.841 112.136Z" fill="#0F1213"/>
</g>
<defs>
<filter id="filter0_b_948_1286" x="76.8072" y="-25.6565" width="390.353" height="390.206" filterUnits="userSpaceOnUse" color-interpolation-filters="sRGB">
<feFlood flood-opacity="0" result="BackgroundImageFix"/>
<feGaussianBlur in="BackgroundImageFix" stdDeviation="27.967"/>
<feComposite in2="SourceAlpha" operator="in" result="effect1_backgroundBlur_948_1286"/>
<feBlend mode="normal" in="SourceGraphic" in2="effect1_backgroundBlur_948_1286" result="shape"/>
</filter>
<filter id="filter1_d_948_1286" x="0" y="6.44482" width="348" height="212.147" filterUnits="userSpaceOnUse" color-interpolation-filters="sRGB">
<feFlood flood-opacity="0" result="BackgroundImageFix"/>
<feColorMatrix in="SourceAlpha" type="matrix" values="0 0 0 0 0 0 0 0 0 0 0 0 0 0 0 0 0 0 127 0" result="hardAlpha"/>
<feOffset dy="4"/>
<feGaussianBlur stdDeviation="42"/>
<feComposite in2="hardAlpha" operator="out"/>
<feColorMatrix type="matrix" values="0 0 0 0 0 0 0 0 0 0 0 0 0 0 0 0 0 0 0.45 0"/>
<feBlend mode="normal" in2="BackgroundImageFix" result="effect1_dropShadow_948_1286"/>
<feBlend mode="normal" in="SourceGraphic" in2="effect1_dropShadow_948_1286" result="shape"/>
</filter>
<radialGradient id="paint0_radial_948_1286" cx="0" cy="0" r="1" gradientUnits="userSpaceOnUse" gradientTransform="translate(141.005 140.811) rotate(-135) scale(169.093 97.6261)">
<stop stop-color="#FFED2C" stop-opacity="0.3"/>
<stop offset="1" stop-color="#FFED2C" stop-opacity="0"/>
</radialGradient>
<radialGradient id="paint1_radial_948_1286" cx="0" cy="0" r="1" gradientUnits="userSpaceOnUse" gradientTransform="translate(290.719 238.584) rotate(134.835) scale(70.1422 61.2825)">
<stop stop-color="#FFED2C" stop-opacity="0.3"/>
<stop offset="1" stop-color="#FFED2C" stop-opacity="0"/>
</radialGradient>
<radialGradient id="paint2_radial_948_1286" cx="0" cy="0" r="1" gradientUnits="userSpaceOnUse" gradientTransform="translate(274.829 174.752) rotate(11.3453) scale(136.361 119.137)">
<stop stop-color="#FFED2C" stop-opacity="0.3"/>
<stop offset="1" stop-color="#FFED2C" stop-opacity="0"/>
</radialGradient>
<radialGradient id="paint3_radial_948_1286" cx="0" cy="0" r="1" gradientUnits="userSpaceOnUse" gradientTransform="translate(272.405 175.397) rotate(138.655) scale(136.361 119.137)">
<stop stop-color="#FFED2C" stop-opacity="0.3"/>
<stop offset="1" stop-color="#FFED2C" stop-opacity="0"/>
</radialGradient>
</defs>
</svg>
