<svg width="114" height="24" viewBox="0 0 114 24" fill="none" xmlns="http://www.w3.org/2000/svg">
<path d="M77.8262 21.5139C76.1563 19.8439 75.3213 17.7618 75.3213 15.2677C75.3213 12.7953 76.1563 10.7241 77.8262 9.05413C79.4962 7.40584 81.6325 6.5817 84.235 6.5817C86.8159 6.5817 88.9413 7.40584 90.6113 9.05413C92.303 10.7241 93.1488 12.7953 93.1488 15.2677C93.1488 17.7835 92.303 19.8656 90.6113 21.5139C88.9413 23.1621 86.8159 23.9863 84.235 23.9863C81.6108 23.9863 79.4745 23.1621 77.8262 21.5139ZM86.7725 18.2607C87.4015 17.5016 87.716 16.5039 87.716 15.2677C87.716 14.0315 87.3906 13.0339 86.74 12.2748C86.0894 11.5157 85.2544 11.1362 84.235 11.1362C83.1723 11.1362 82.3265 11.5157 81.6975 12.2748C81.0686 13.0339 80.7541 14.0315 80.7541 15.2677C80.7541 16.5039 81.0686 17.5016 81.6975 18.2607C82.3048 19.0414 83.1506 19.4318 84.235 19.4318C85.2761 19.4318 86.1219 19.0414 86.7725 18.2607Z" fill="#FFFDE3"/>
<path d="M100.657 0.0102539V23.726H95.2893V0.0102539H100.657Z" fill="#FFFDE3"/>
<path d="M110.349 11.2663V17.122C110.349 17.8161 110.566 18.3799 111 18.8137C111.412 19.2258 111.932 19.4318 112.561 19.4318C112.974 19.4318 113.44 19.3667 113.96 19.2366V23.7586C113.375 23.9104 112.637 23.9863 111.748 23.9863C109.753 23.9863 108.148 23.4766 106.933 22.4573C105.632 21.3512 104.982 19.8005 104.982 17.8052V11.2663H102.379V6.84196H104.982V1.9947H110.349V6.84196H113.96V11.2663H110.349Z" fill="#FFFDE3"/>
<path d="M65.15 0.270508C67.3188 0.270508 69.0972 0.780174 70.4853 1.79951C71.96 2.88391 72.6974 4.38037 72.6974 6.28891C72.6974 8.43602 71.8191 9.97586 70.0623 10.9084C72.6215 12.0145 73.9011 13.9339 73.9011 16.6666C73.9011 18.9005 73.0878 20.6463 71.4612 21.9042C69.9214 23.1188 67.8719 23.726 65.3127 23.726H55.6182V0.270508H65.15ZM64.4994 18.7486C66.9067 18.7486 68.1104 17.9353 68.1104 16.3087C68.1104 14.6388 66.9067 13.8038 64.4994 13.8038H61.2787V18.7486H64.4994ZM64.2391 8.95653C66.0609 8.95653 66.9718 8.26252 66.9718 6.87449C66.9718 5.48646 66.0175 4.79244 64.109 4.79244H61.2787V8.95653H64.2391Z" fill="#FFFDE3"/>
<path d="M52.8853 0.270508H55.6411L55.9472 4.27261L52.8853 0.270508Z" fill="#FFFDE3"/>
<path fill-rule="evenodd" clip-rule="evenodd" d="M5.33036 14.6695L27.1489 23.6481L50.7428 11.4437L35.5467 0.370605L17.1363 9.42782L24.4384 1.16829L0.00732422 7.35766L11.9758 8.03843L5.33036 14.6695ZM33.0504 12.3231C31.5826 15.1556 29.2967 17.1813 27.9445 16.8474C26.5924 16.5135 26.6861 13.9466 28.1538 11.1141C29.6216 8.28149 31.9076 6.25587 33.2597 6.58972C34.6119 6.92358 34.5182 9.49048 33.0504 12.3231ZM39.4594 11.8235C38.2415 14.1738 36.3448 15.8546 35.2228 15.5775C34.1009 15.3005 34.1787 13.1707 35.3965 10.8204C36.6144 8.47011 38.5111 6.78939 39.633 7.0664C40.755 7.3434 40.6772 9.47325 39.4594 11.8235Z" fill="#FFFDE3"/>
</svg>
