<svg width="24" height="24" viewBox="0 0 24 24" fill="none" xmlns="http://www.w3.org/2000/svg">
<path d="M20.2042 21.6199C20.1297 21.8055 20.0165 21.9729 19.872 22.1111C19.7275 22.2493 19.5551 22.355 19.3664 22.4212C19.1777 22.4874 18.977 22.5125 18.7778 22.4948C18.5786 22.4771 18.3855 22.417 18.2114 22.3187L12.8124 18.1256L9.3472 21.3208C9.2668 21.3802 9.17274 21.4184 9.07369 21.4319C8.97464 21.4455 8.87378 21.4339 8.78038 21.3982L9.44465 15.4577L9.46591 15.4745L9.4795 15.3572C9.4795 15.3572 19.1949 6.51635 19.5907 6.13967C19.9914 5.76397 19.8592 5.68247 19.8592 5.68247C19.882 5.22422 19.1402 5.68247 19.1402 5.68247L6.26746 13.9599L0.906603 12.135C0.906603 12.135 0.0832283 11.8399 0.00566407 11.1908C-0.0758778 10.5468 0.933433 10.1969 0.933433 10.1969L22.2477 1.7337C22.2477 1.7337 23.9998 0.953438 23.9998 2.24559L20.2042 21.6199Z" fill="#FFFDE3"/>
</svg>
