<?xml version="1.0" encoding="utf-8"?><svg viewBox="0 0 1551 895" xmlns="http://www.w3.org/2000/svg" xmlns:xlink="http://www.w3.org/1999/xlink"><style>:root>svg{display:none}:root>svg:target{display:block}</style><svg viewBox="0 0 1551 895" id="built-bg" xmlns="http://www.w3.org/2000/svg"><g clip-path="url(#aa)"><mask id="ab" maskUnits="userSpaceOnUse" x="0" y="0" width="1551" height="895"><path d="M0 0h1551v895H0z"/></mask><g mask="url(#ab)"><g opacity=".2" filter="url(#ac)"><path d="M386 409.5C386 624.615 560.385 799 775.5 799S1165 624.615 1165 409.5 990.615 20 775.5 20 386 194.385 386 409.5Z"/></g><path opacity=".12" d="m317.608 346.004 35.218 20.333m0 0 70.435 40.667m-70.435-40.667 70.435-40.666m-70.435 40.666-35.218 20.334m105.653 20.333 70.436 40.666m-70.436-40.666 70.436-40.667m-70.436 40.667-35.217 20.333m105.653 20.333 70.436 40.666m-70.436-40.666 70.436-40.666m-70.436 40.666-35.218 20.333m105.654 20.333 70.436 40.666m-70.436-40.666 70.436-40.666m-70.436 40.666-35.218 20.333m105.654 20.333 35.217 20.333m-35.217-20.333 70.435-40.666m-70.435 40.666-35.218 20.333M388.044 305.338l35.217 20.333m0 0 70.436 40.666m-70.436-40.666 70.436-40.666m0 81.332 70.436 40.667m-70.436-40.667 70.436-40.666m0 81.333 70.436 40.666m-70.436-40.666 70.436-40.666m0 81.332 70.435 40.666m-70.435-40.666 70.435-40.666m0 81.332 35.218 20.333m-35.218-20.333 70.436-40.666M458.479 264.672l35.218 20.333m0 0 70.436 40.666m-70.436-40.666 70.436-40.666m0 81.332 70.436 40.667m-70.436-40.667 70.436-40.666m0 81.333 70.435 40.666m-70.435-40.666 70.435-40.667m0 81.333 70.436 40.666m-70.436-40.666 70.436-40.667m0 81.333 35.218 20.333M775.44 447.67l70.436-40.666M528.915 224.006l35.218 20.333m0 0 70.436 40.666m-70.436-40.666 70.436-40.666m0 81.332 70.435 40.666m-70.435-40.666 70.435-40.666m0 81.332 70.436 40.666m-70.436-40.666 70.436-40.666m0 81.332 70.436 40.667m-70.436-40.667 70.436-40.666m0 81.333 35.218 20.333m-35.218-20.333 70.435-40.666M599.351 183.34l35.218 20.333m0 0 70.435 40.666m-70.435-40.666 35.217-20.333m35.218 60.999 70.436 40.666m-70.436-40.666 35.218-20.333m35.218 60.999 70.436 40.666m-70.436-40.666 35.218-20.333m35.218 60.999 70.435 40.667m-70.435-40.667 35.218-20.333m35.217 61 35.218 20.333m-35.218-20.333 35.218-20.334M35.218 509.042l35.218 20.334m0 0 70.435 40.666m-70.435-40.666 70.435-40.667m-70.435 40.667-35.218 20.333m105.653 20.333 70.436 40.666m-70.436-40.666 70.436-40.666m-70.436 40.666-35.217 20.333m105.653 20.333 70.436 40.666m-70.436-40.666 70.436-40.666m-70.436 40.666-35.218 20.333m105.654 20.333 70.435 40.666m-70.435-40.666 70.436-40.666m-70.436 40.666-35.218 20.333m105.653 20.333 35.218 20.333m-35.218-20.333 70.436-40.666m-70.436 40.666-35.217 20.333M105.654 468.376l35.217 20.333m0 0 70.436 40.667m-70.436-40.667 70.436-40.666m0 81.333 70.436 40.666m-70.436-40.666 70.436-40.667m0 81.333 70.436 40.666m-70.436-40.666 70.436-40.666m0 81.332 70.435 40.666m-70.435-40.666 70.435-40.666m0 81.332 35.218 20.333m-35.218-20.333 70.436-40.666M176.089 427.71l35.218 20.333m0 0 70.436 40.666m-70.436-40.666 70.436-40.666m0 81.332 70.436 40.667m-70.436-40.667 70.436-40.666m0 81.333 70.435 40.666m-70.435-40.666 70.435-40.667m0 81.333 70.436 40.666m-70.436-40.666 70.436-40.666m0 81.332 35.218 20.333m-35.218-20.333 70.436-40.666M246.525 387.044l35.218 20.333m0 0 70.436 40.666m-70.436-40.666 70.436-40.666m0 81.332 70.435 40.666m-70.435-40.666 70.435-40.666m0 81.332 70.436 40.667m-70.436-40.667 70.436-40.666m0 81.333 70.436 40.666m-70.436-40.666 70.436-40.667m0 81.333 35.217 20.333m-35.217-20.333 70.435-40.666m-316.96-182.998 35.218 20.333m0 0 70.435 40.666m-70.435-40.666 35.217-20.333m35.218 60.999 70.436 40.666m-70.436-40.666 35.218-20.333m35.218 60.999 70.436 40.666m-70.436-40.666 35.218-20.333m35.218 60.999 70.435 40.667m-70.435-40.667 35.217-20.333m35.218 61 35.218 20.333m-35.218-20.333 35.218-20.334M881.688 20.333l35.218 20.333m0 0 70.435 40.666m-70.435-40.666L846.47 81.332m70.436-40.666 35.217-20.333m35.218 61 70.439 40.665m-70.439-40.666-70.435 40.666m70.435-40.666L1022.56 61m35.22 60.999 70.43 40.666m-70.43-40.666-70.439 40.666m70.439-40.666 35.21-20.333m35.22 60.999 70.44 40.666m-70.44-40.666-70.43 40.666m70.43-40.666 35.22-20.333m35.22 60.999 35.22 20.333m-35.22-20.333-70.44 40.666m70.44-40.666 35.22-20.333M811.252 60.999l35.218 20.333m0 0 70.436 40.666M846.47 81.332l-70.436 40.666m140.872 0 70.435 40.666m-70.435-40.666-70.436 40.666m140.871 0 70.439 40.666m-70.439-40.666-70.435 40.666m140.874 0 70.43 40.666m-70.43-40.666-70.439 40.666m140.869 0 35.22 20.333m-35.22-20.333-70.43 40.666M740.816 101.665l35.218 20.333m0 0 70.436 40.666m-70.436-40.666-70.435 40.666m140.871 0 70.436 40.666m-70.436-40.666-70.436 40.666m140.872 0 70.435 40.666m-70.435-40.666-70.436 40.666m140.871 0 70.439 40.666m-70.439-40.666-70.435 40.666m140.874 0 35.21 20.333m-35.21-20.333-70.439 40.666m-316.96-182.997 35.218 20.333m0 0 70.435 40.666m-70.435-40.666-70.436 40.666m140.871 0 70.436 40.666m-70.436-40.666-70.435 40.666m140.871 0 70.436 40.666m-70.436-40.666-70.436 40.666m140.872 0 70.435 40.666m-70.435-40.666-70.436 40.667m140.871-.001 35.219 20.334m-35.219-20.334-70.435 40.667M599.945 182.997l35.218 20.333m0 0 70.436 40.666m-70.436-40.666-35.218 20.333m105.654 20.333 70.435 40.666m-70.435-40.666-35.218 20.333m105.653 20.333 70.436 40.667m-70.436-40.667-35.218 20.333m105.654 20.334 70.436 40.666m-70.436-40.666-35.218 20.333m105.654 20.333 35.217 20.333m-35.217-20.333-35.218 20.333M599.355 508.671l35.218 20.333m0 0 70.436 40.666m-70.436-40.666 70.436-40.666m-70.436 40.666-35.218 20.333m105.654 20.333 70.435 40.666m-70.435-40.666 70.435-40.666m-70.435 40.666-35.218 20.333m105.653 20.333 70.436 40.667m-70.436-40.667 70.436-40.666m-70.436 40.666-35.217 20.334m105.653 20.333 70.436 40.666m-70.436-40.666 70.436-40.666m-70.436 40.666-35.218 20.333m105.654 20.333 35.218 20.333m-35.218-20.333 70.436-40.666m-70.436 40.666-35.218 20.333M669.791 468.005l35.218 20.333m0 0 70.435 40.666m-70.435-40.666 70.435-40.666m0 81.332 70.436 40.666m-70.436-40.666 70.436-40.666m0 81.332 70.436 40.667M845.88 569.67l70.436-40.666m0 81.333 70.436 40.666m-70.436-40.666 70.436-40.667m0 81.333 35.218 20.333m-35.218-20.333 70.438-40.666M740.227 427.339l35.217 20.333m0 0 70.436 40.666m-70.436-40.666 70.436-40.666m0 81.332 70.436 40.666m-70.436-40.666 70.436-40.666m0 81.332 70.436 40.666m-70.436-40.666 70.436-40.666m0 81.332 70.438 40.667m-70.438-40.667 70.438-40.666m0 81.333 35.22 20.333m-35.22-20.333 70.43-40.667M810.662 386.673l35.218 20.333m0 0 70.436 40.666m-70.436-40.666 70.436-40.666m0 81.332 70.436 40.666m-70.436-40.666 70.436-40.666m0 81.332 70.438 40.666m-70.438-40.666 70.438-40.666m0 81.332 70.43 40.666m-70.43-40.666 70.43-40.666m0 81.332 35.22 20.333m-35.22-20.333 70.44-40.666M881.098 346.007l35.218 20.333m0 0 70.436 40.666m-70.436-40.666 35.218-20.333m35.218 60.999 70.438 40.666m-70.438-40.666 35.218-20.333m35.22 60.999 70.43 40.666m-70.43-40.666 35.22-20.333m35.21 60.999 70.44 40.666m-70.44-40.666 35.22-20.333m35.22 60.999 35.22 20.333m-35.22-20.333 35.22-20.333M316.965 671.709l35.218 20.333m0 0 70.436 40.666m-70.436-40.666 70.436-40.666m-70.436 40.666-35.218 20.333m105.654 20.333 70.435 40.667m-70.435-40.667 70.435-40.666m-70.435 40.666-35.218 20.333m105.653 20.334 70.436 40.666m-70.436-40.666 70.436-40.667m-70.436 40.667-35.217 20.333m105.653 20.333 70.436 40.666m-70.436-40.666 70.436-40.666m-70.436 40.666-35.218 20.333m105.654 20.333 35.218 20.333m-35.218-20.333 70.435-40.666m-70.435 40.666-35.218 20.333M387.401 631.043l35.218 20.333m0 0 70.435 40.666m-70.435-40.666 70.435-40.666m0 81.332 70.436 40.666m-70.436-40.666 70.436-40.666m0 81.332 70.436 40.667m-70.436-40.667 70.436-40.666m0 81.333 70.435 40.666m-70.435-40.666 70.436-40.667m-.001 81.333 35.218 20.333m-35.218-20.333 70.436-40.666m-316.96-182.998 35.217 20.333m0 0 70.436 40.666m-70.436-40.666 70.436-40.666m0 81.332 70.436 40.666m-70.436-40.666 70.436-40.666m0 81.332 70.436 40.666m-70.436-40.666 70.436-40.666m0 81.332 70.435 40.667m-70.435-40.667 70.435-40.666m0 81.333 35.218 20.333m-35.218-20.333 70.436-40.667M528.272 549.711l35.218 20.333m0 0 70.436 40.666m-70.436-40.666 70.436-40.666m0 81.332 70.436 40.666m-70.436-40.666 70.435-40.666m.001 81.332 70.435 40.666m-70.435-40.666 70.435-40.666m0 81.332 70.436 40.666m-70.436-40.666 70.436-40.666m0 81.332 35.218 20.333m-35.218-20.333 70.436-40.666M598.708 509.045l35.218 20.333m0 0 70.435 40.666m-70.435-40.666 35.218-20.333m35.217 60.999 70.436 40.666m-70.436-40.666 35.218-20.333m35.218 60.999 70.436 40.666m-70.436-40.666 35.218-20.333m35.218 60.999 70.436 40.666m-70.436-40.666 35.218-20.333m35.218 60.999 35.217 20.333m-35.217-20.333 35.217-20.333M1163.44 183l35.21 20.333m0 0 70.44 40.666m-70.44-40.666-70.43 40.666m70.43-40.666L1233.87 183m35.22 60.999 70.43 40.666m-70.43-40.666-70.44 40.666m70.44-40.666 35.22-20.333m35.21 60.999 70.44 40.666m-70.44-40.666-70.43 40.666m70.43-40.666 35.22-20.333m35.22 60.999 70.44 40.666m-70.44-40.666-70.44 40.666m70.44-40.666 35.22-20.333m35.22 60.999 35.21 20.333m-35.21-20.333-70.44 40.666m70.44-40.666 35.21-20.333M1093 223.666l35.22 20.333m0 0 70.43 40.666m-70.43-40.666-70.44 40.666m140.87 0 70.44 40.666m-70.44-40.666-70.43 40.666m140.87 0 70.43 40.666m-70.43-40.666-70.44 40.666m140.87 0 70.44 40.666m-70.44-40.666-70.43 40.666m140.87 0 35.22 20.333m-35.22-20.333-70.44 40.666m-316.96-182.997 35.22 20.333m0 0 70.44 40.666m-70.44-40.666-70.434 40.666m140.874 0 70.43 40.666m-70.43-40.666-70.44 40.666m140.87 0 70.44 40.666m-70.44-40.666-70.43 40.666m140.87 0 70.43 40.666m-70.43-40.666-70.44 40.666m140.87 0 35.22 20.333m-35.22-20.333-70.43 40.666M952.128 304.998l35.218 20.333m0 0 70.434 40.666m-70.434-40.666-70.436 40.666m140.87 0 70.44 40.666m-70.44-40.666-70.434 40.666m140.874 0 70.43 40.666m-70.43-40.666-70.44 40.666m140.87 0 70.44 40.666m-70.44-40.666-70.43 40.666m140.87 0 35.22 20.333m-35.22-20.333-70.44 40.666M881.692 345.664l35.218 20.333m0 0 70.436 40.666m-70.436-40.666-35.218 20.333m105.654 20.333 70.434 40.666m-70.434-40.666-35.218 20.333m105.652 20.333 70.44 40.666m-70.44-40.666-35.22 20.333m105.66 20.333 70.43 40.666m-70.43-40.666L1093 508.328m105.65 20.333 35.22 20.333m-35.22-20.333-35.21 20.333"/></g></g><defs><clipPath id="aa"><path d="M0 0h1551v895H0z"/></clipPath><filter id="ac" x="72" y="-294" width="1407" height="1407" filterUnits="userSpaceOnUse" color-interpolation-filters="sRGB"><feFlood flood-opacity="0" result="BackgroundImageFix"/><feBlend in="SourceGraphic" in2="BackgroundImageFix" result="shape"/><feGaussianBlur stdDeviation="157" result="effect1_foregroundBlur_948_1269"/></filter></defs></svg><svg viewBox="0 0 257 251" id="built-decor-img-01" xmlns="http://www.w3.org/2000/svg"><g filter="url(#ba)"><path d="M110.223 133.065c-44.215-32.43-70.119-72.27-57.859-88.985L71.228 18.3l160.115 117.44c-7.345 10.015-11.832 17.36-17.448 24.319-12.26 16.715-59.457 5.436-103.672-26.994Z"/><path d="m52.88 44.458 18.485-25.264 159.086 116.684c-2.932 4.014-5.409 7.599-7.688 10.898l-1.318 1.906c-2.741 3.956-5.255 7.516-8.047 10.976l-.009.011-.009.012c-2.921 3.983-7.97 6.363-14.711 7.138-6.737.774-15.085-.066-24.47-2.447-18.764-4.76-41.543-15.645-63.598-31.822-22.062-16.181-39.531-34.195-49.95-50.219-5.21-8.013-8.638-15.5-10.011-21.988-1.374-6.49-.68-11.905 2.24-15.885Z"/></g><g filter="url(#bb)"><path d="M71.266 18.328c-12.26 16.715 13.644 56.555 57.859 88.985s89.997 45.169 102.257 28.454c12.26-16.715-13.645-56.555-57.859-88.986-44.215-32.43-89.997-45.169-102.257-28.453Z"/><path d="M129.503 106.798c-22.062-16.181-39.531-34.196-49.95-50.219-5.21-8.014-8.638-15.5-10.011-21.988-1.374-6.49-.68-11.905 2.24-15.886 2.919-3.98 7.876-6.268 14.478-6.908 6.601-.64 14.771.381 23.98 2.944 18.413 5.123 40.843 16.374 62.905 32.556 22.061 16.181 39.531 34.195 49.95 50.219 5.21 8.013 8.638 15.5 10.011 21.988 1.374 6.489.68 11.905-2.239 15.885-2.92 3.98-7.877 6.269-14.479 6.908-6.601.64-14.772-.38-23.98-2.943-18.414-5.124-40.844-16.375-62.905-32.556Z"/></g><g filter="url(#bc)"><rect x="84" y="118" width="67" height="44.147" rx="22.073" shape-rendering="crispEdges"/><path d="M104.242 134.479c1.493 0 2.711.411 3.654 1.232 1.055.915 1.582 2.184 1.582 3.808 0 1.634-.527 2.908-1.582 3.822-.933.822-2.151 1.232-3.654 1.232h-3.402v-10.094h3.402Zm-.21 8.19c.915 0 1.657-.228 2.226-.686.663-.55.994-1.372.994-2.464 0-1.082-.331-1.899-.994-2.45-.569-.457-1.311-.686-2.226-.686h-1.022v6.286h1.022Zm13.567-8.19v1.89h-4.704v1.932h3.738v1.89h-3.738v2.478h4.858v1.904h-7.028v-10.094h6.874Zm.808 0h2.352l1.694 2.786 1.694-2.786h2.352l-2.87 4.718 3.276 5.376h-2.366l-2.086-3.444-2.1 3.444h-2.338l3.262-5.376-2.87-4.718Zm9.272 9.212c-.756-.662-1.153-1.54-1.19-2.632h2.128c.037.486.242.892.616 1.218a1.87 1.87 0 0 0 1.316.504c.466 0 .84-.098 1.12-.294.289-.205.434-.471.434-.798 0-.513-.36-.877-1.078-1.092l-1.512-.42c-1.764-.476-2.646-1.474-2.646-2.996 0-.821.336-1.498 1.008-2.03.672-.532 1.526-.798 2.562-.798 1.11 0 2.011.28 2.702.84.709.579 1.082 1.335 1.12 2.268h-2.128c-.056-.326-.229-.606-.518-.84-.327-.242-.719-.364-1.176-.364-.896 0-1.344.304-1.344.91 0 .448.326.761.98.938l1.526.42c.849.252 1.484.57 1.904.952.541.514.812 1.232.812 2.156 0 .915-.341 1.652-1.022 2.212-.691.551-1.606.826-2.744.826-1.176 0-2.133-.326-2.87-.98Z"/></g><defs><filter id="ba" x="38.589" y="7.568" width="203.487" height="170.903" filterUnits="userSpaceOnUse" color-interpolation-filters="sRGB"><feFlood flood-opacity="0" result="BackgroundImageFix"/><feColorMatrix in="SourceAlpha" values="0 0 0 0 0 0 0 0 0 0 0 0 0 0 0 0 0 0 127 0" result="hardAlpha"/><feOffset/><feGaussianBlur stdDeviation="5.367"/><feComposite in2="hardAlpha" operator="out"/><feColorMatrix values="0 0 0 0 1 0 0 0 0 0.93119 0 0 0 0 0.17428 0 0 0 0.8 0"/><feBlend in2="BackgroundImageFix" result="effect1_dropShadow_948_1302"/><feBlend in="SourceGraphic" in2="effect1_dropShadow_948_1302" result="shape"/></filter><filter id="bb" x="57.491" y=".239" width="187.666" height="153.616" filterUnits="userSpaceOnUse" color-interpolation-filters="sRGB"><feFlood flood-opacity="0" result="BackgroundImageFix"/><feColorMatrix in="SourceAlpha" values="0 0 0 0 0 0 0 0 0 0 0 0 0 0 0 0 0 0 127 0" result="hardAlpha"/><feOffset/><feGaussianBlur stdDeviation="5.367"/><feComposite in2="hardAlpha" operator="out"/><feColorMatrix values="0 0 0 0 1 0 0 0 0 0.93119 0 0 0 0 0.17428 0 0 0 0.8 0"/><feBlend in2="BackgroundImageFix" result="effect1_dropShadow_948_1302"/><feBlend in="SourceGraphic" in2="effect1_dropShadow_948_1302" result="shape"/></filter><filter id="bc" x="0" y="38" width="235" height="212.147" filterUnits="userSpaceOnUse" color-interpolation-filters="sRGB"><feFlood flood-opacity="0" result="BackgroundImageFix"/><feColorMatrix in="SourceAlpha" values="0 0 0 0 0 0 0 0 0 0 0 0 0 0 0 0 0 0 127 0" result="hardAlpha"/><feOffset dy="4"/><feGaussianBlur stdDeviation="42"/><feComposite in2="hardAlpha" operator="out"/><feColorMatrix values="0 0 0 0 0 0 0 0 0 0 0 0 0 0 0 0 0 0 0.45 0"/><feBlend in2="BackgroundImageFix" result="effect1_dropShadow_948_1302"/><feBlend in="SourceGraphic" in2="effect1_dropShadow_948_1302" result="shape"/></filter></defs></svg><svg viewBox="0 0 246 215" id="built-decor-img-02" xmlns="http://www.w3.org/2000/svg"><g filter="url(#ca)"><rect x="84" y="80.648" width="77" height="44.147" rx="22.073" shape-rendering="crispEdges"/><path d="M101.904 106.382c-.765-.681-1.148-1.647-1.148-2.898v-6.356h2.17v6.356c0 .644.182 1.134.546 1.47.327.317.784.476 1.372.476.588 0 1.045-.159 1.372-.476.373-.336.56-.826.56-1.47v-6.356h2.156v6.356c0 1.26-.383 2.226-1.148 2.898-.719.635-1.699.952-2.94.952-1.223 0-2.203-.317-2.94-.952Zm9.259-.042c-.756-.663-1.153-1.54-1.19-2.632h2.128c.037.485.243.891.616 1.218.364.336.803.504 1.316.504.467 0 .84-.098 1.12-.294.289-.205.434-.471.434-.798 0-.513-.359-.877-1.078-1.092l-1.512-.42c-1.764-.476-2.646-1.475-2.646-2.996 0-.821.336-1.498 1.008-2.03.672-.532 1.526-.798 2.562-.798 1.111 0 2.011.28 2.702.84.709.579 1.083 1.335 1.12 2.268h-2.128c-.056-.327-.229-.607-.518-.84-.327-.243-.719-.364-1.176-.364-.896 0-1.344.303-1.344.91 0 .448.327.761.98.938l1.526.42c.849.252 1.484.569 1.904.952.541.513.812 1.232.812 2.156 0 .915-.341 1.652-1.022 2.212-.691.551-1.605.826-2.744.826-1.176 0-2.133-.327-2.87-.98Zm14.789-9.212v1.89h-4.704v1.932h3.738v1.89h-3.738v2.478h4.858v1.904h-7.028V97.128h6.874Zm5.837 0c.998 0 1.801.28 2.408.84.597.56.896 1.311.896 2.254 0 1.148-.486 2.002-1.456 2.562.597.317.98.868 1.148 1.652l.336 1.54c.112.541.256.957.434 1.246h-2.38c-.122-.205-.22-.504-.294-.896l-.238-1.47c-.103-.56-.313-.957-.63-1.19-.327-.243-.826-.364-1.498-.364h-1.036v3.92h-2.17V97.128h4.48Zm-.35 4.27c.961 0 1.442-.392 1.442-1.176 0-.793-.481-1.19-1.442-1.19h-1.96v2.366h1.96Zm5.605 4.942c-.756-.663-1.153-1.54-1.19-2.632h2.128c.037.485.243.891.616 1.218.364.336.803.504 1.316.504.467 0 .84-.098 1.12-.294.289-.205.434-.471.434-.798 0-.513-.359-.877-1.078-1.092l-1.512-.42c-1.764-.476-2.646-1.475-2.646-2.996 0-.821.336-1.498 1.008-2.03.672-.532 1.526-.798 2.562-.798 1.111 0 2.011.28 2.702.84.709.579 1.083 1.335 1.12 2.268h-2.128c-.056-.327-.229-.607-.518-.84-.327-.243-.719-.364-1.176-.364-.896 0-1.344.303-1.344.91 0 .448.327.761.98.938l1.526.42c.849.252 1.484.569 1.904.952.541.513.812 1.232.812 2.156 0 .915-.341 1.652-1.022 2.212-.691.551-1.605.826-2.744.826-1.176 0-2.133-.327-2.87-.98Z"/></g><g filter="url(#cb)"><path fill-rule="evenodd" clip-rule="evenodd" d="M152.839 141.808c-.908-2.167-1.6-6.273-3.404-11.526-1.025-2.973-3.98-8.857-4.585-11.595-.514-2.414-.131-3.325.618-4.997 1.332-2.975 5.192-4.503 8.497-3.228 2.498.96 4.2 3.263 5.71 5.412.912 1.294 1.842 3.574 2.422 4.877.535 1.194.621 1.65 1.161 3.037.713 1.836.859 2.687.89.894.335-2.55.931-6.898 1.135-10.833.152-2.985.122-3.468.121-5.792.003-2.472.126-4.17.207-6.77.066-1.836.301-5.56.651-7.594.474-2.784 1.558-7.235 3.86-8.777 1.803-1.207 5.056-.815 6.716.704 2.173 1.988 2.584 6.068 2.832 7.72.444 2.97.323 6.225-.158 10.408-.614 5.324-1.097 12.816-1.464 14.318.629-1.791 1.247-5.76 2.053-7.422.73-1.507 2.58-2.978 4.39-3.01 1.532-.025 3.231.284 4.605.993 1.459.749 2.781 2.313 3.098 3.526.928 3.585-.799 9.898-.631 9.582.945-1.74 2.049-5.978 3.592-7.438 1.016-.964 3.072-1.514 4.058-1.42 1.526.15 3.333.569 4.777 1.293 1.164.586 2.421 2.515 2.675 3.343.602 2.001-.129 6.983-.417 8.72-.121.718.907-1.836 2.465-3.234 2.89-2.598 10.166-1.226 8.501 5.781-.78 3.268-.763 3.113-1.371 5.288-.714 2.556-1.203 4.077-1.858 5.888-.706 1.935-2.38 6.285-3.603 8.278-.841 1.369-3.185 4.323-5.135 5.942 0 0-7.037 4.696-8.393 7.318-1.36 2.615-1.172 2.689-1.837 4.63-.664 1.936-.676 4.725-.676 4.725s-4.109-.594-6.149-1.531c-1.846-.852-3.164-5.367-3.453-6.716-.398-1.86-2.299-2.055-3.34-1.056-1.642 1.582-4.984 4.31-6.734 4.05-3.419-.507-10.198-2.684-15.547-4.237 0 0 2.311-4.743.754-7.027-1.15-1.702-3.021-5.023-4.192-6.821l-2.841-5.703Z"/><path fill-rule="evenodd" clip-rule="evenodd" d="M152.839 141.808c-.908-2.167-1.6-6.273-3.404-11.526-1.025-2.973-3.98-8.857-4.585-11.595-.514-2.414-.131-3.325.618-4.997 1.332-2.975 5.192-4.503 8.497-3.228 2.498.96 4.2 3.263 5.71 5.412.912 1.294 1.842 3.574 2.422 4.877.535 1.194.621 1.65 1.161 3.037.713 1.836.859 2.687.89.894.335-2.55.931-6.898 1.135-10.833.152-2.985.122-3.468.121-5.792.003-2.472.126-4.17.207-6.77.066-1.836.301-5.56.651-7.594.474-2.784 1.558-7.235 3.86-8.777 1.803-1.207 5.056-.815 6.716.704 2.173 1.988 2.584 6.068 2.832 7.72.444 2.97.323 6.225-.158 10.408-.614 5.324-1.097 12.816-1.464 14.318.629-1.791 1.247-5.76 2.053-7.422.73-1.507 2.58-2.978 4.39-3.01 1.532-.025 3.231.284 4.605.993 1.459.749 2.781 2.313 3.098 3.526.928 3.585-.799 9.898-.631 9.582.945-1.74 2.049-5.978 3.592-7.438 1.016-.964 3.072-1.514 4.058-1.42 1.526.15 3.333.569 4.777 1.293 1.164.586 2.421 2.515 2.675 3.343.602 2.001-.129 6.983-.417 8.72-.121.718.907-1.836 2.465-3.234 2.89-2.598 10.166-1.226 8.501 5.781-.78 3.268-.763 3.113-1.371 5.288-.714 2.556-1.203 4.077-1.858 5.888-.706 1.935-2.38 6.285-3.603 8.278-.841 1.369-3.185 4.323-5.135 5.942 0 0-7.037 4.696-8.393 7.318-1.36 2.615-1.172 2.689-1.837 4.63-.664 1.936-.676 4.725-.676 4.725s-4.109-.594-6.149-1.531c-1.846-.852-3.164-5.367-3.453-6.716-.398-1.86-2.299-2.055-3.34-1.056-1.642 1.582-4.984 4.31-6.734 4.05-3.419-.507-10.198-2.684-15.547-4.237 0 0 2.311-4.743.754-7.027-1.15-1.702-3.021-5.023-4.192-6.821l-2.841-5.703Z"/><path d="M188.311 133.161a1.926 1.926 0 0 1 1.347 2.366l-4.719 17.193a1.926 1.926 0 0 1-3.713-1.019l4.719-17.193a1.926 1.926 0 0 1 2.366-1.347Zm10.05 2.82a1.924 1.924 0 0 1 1.335 2.372l-4.778 17.101a1.925 1.925 0 1 1-3.708-1.036l4.778-17.101a1.926 1.926 0 0 1 2.373-1.336Zm-18.536-3.036a1.924 1.924 0 1 0-3.714-1.014l-4.629 16.967a1.925 1.925 0 0 0 3.714 1.014l4.629-16.967Z"/></g><defs><filter id="ca" x="0" y=".648" width="245" height="212.147" filterUnits="userSpaceOnUse" color-interpolation-filters="sRGB"><feFlood flood-opacity="0" result="BackgroundImageFix"/><feColorMatrix in="SourceAlpha" values="0 0 0 0 0 0 0 0 0 0 0 0 0 0 0 0 0 0 127 0" result="hardAlpha"/><feOffset dy="4"/><feGaussianBlur stdDeviation="42"/><feComposite in2="hardAlpha" operator="out"/><feColorMatrix values="0 0 0 0 0 0 0 0 0 0 0 0 0 0 0 0 0 0 0.45 0"/><feBlend in2="BackgroundImageFix" result="effect1_dropShadow_948_1316"/><feBlend in="SourceGraphic" in2="effect1_dropShadow_948_1316" result="shape"/></filter><filter id="cb" x="106.729" y="67.787" width="145.542" height="149.105" filterUnits="userSpaceOnUse" color-interpolation-filters="sRGB"><feFlood flood-opacity="0" result="BackgroundImageFix"/><feColorMatrix in="SourceAlpha" values="0 0 0 0 0 0 0 0 0 0 0 0 0 0 0 0 0 0 127 0" result="hardAlpha"/><feOffset dy="16.427"/><feGaussianBlur stdDeviation="12.32"/><feColorMatrix values="0 0 0 0 0 0 0 0 0 0 0 0 0 0 0 0 0 0 0.402655 0"/><feBlend in2="BackgroundImageFix" result="effect1_dropShadow_948_1316"/><feBlend in="SourceGraphic" in2="effect1_dropShadow_948_1316" result="shape"/></filter></defs></svg><svg viewBox="0 0 428 339" id="built-decor-img-03" xmlns="http://www.w3.org/2000/svg"><g filter="url(#da)"><path d="M235.172 31.93 371.279 68.4l-99.637 99.637-136.107-36.47 99.637-99.636Zm37.075 138.365 136.106 36.469-99.637 99.637-136.106-36.47 99.637-99.636Z"/><path d="M273.463 169.667 373.1 70.03l36.47 136.107-99.637 99.637-36.47-136.107Zm-2.421.649-136.107-36.47 36.47 136.107 136.106 36.47-36.469-136.107ZM235.174 31.93 371.281 68.4l-99.636 99.636-136.107-36.47z"/><path d="m272.246 170.292 136.107 36.469-99.637 99.637-136.107-36.469 99.637-99.637Z"/><path d="m273.467 169.669 99.637-99.637 36.469 136.107-99.637 99.636-36.469-136.106ZM271.043 170.314l-136.107-36.469 36.47 136.106 136.107 36.47-36.47-136.107Z"/></g><g filter="url(#db)"><rect x="84" y="86.445" width="180" height="44.147" rx="22.073" shape-rendering="crispEdges"/><path d="M103.01 102.924v8.176h4.592v1.918h-6.762v-10.094h2.17Zm7.766 0v10.094h-2.17v-10.094h2.17Zm8.895 6.874c.308-.541.462-1.152.462-1.834 0-.924-.275-1.698-.826-2.324-.56-.625-1.265-.938-2.114-.938-.859 0-1.568.313-2.128.938-.551.626-.826 1.4-.826 2.324 0 .934.275 1.713.826 2.338.541.616 1.251.924 2.128.924.364 0 .719-.065 1.064-.196l-1.596-1.736 1.4-1.246 1.61 1.75Zm-6.174 1.862c-.98-.98-1.47-2.212-1.47-3.696s.49-2.711 1.47-3.682c.98-.98 2.217-1.47 3.71-1.47 1.465 0 2.693.486 3.682 1.456.971.99 1.456 2.222 1.456 3.696 0 1.354-.406 2.497-1.218 3.43l1.246 1.358-1.372 1.232-1.33-1.428a5.32 5.32 0 0 1-2.464.574c-1.493 0-2.73-.49-3.71-1.47Zm11.143.518c-.765-.681-1.148-1.647-1.148-2.898v-6.356h2.17v6.356c0 .644.182 1.134.546 1.47.327.318.784.476 1.372.476.588 0 1.046-.158 1.372-.476.374-.336.56-.826.56-1.47v-6.356h2.156v6.356c0 1.26-.382 2.226-1.148 2.898-.718.635-1.698.952-2.94.952-1.222 0-2.202-.317-2.94-.952Zm10.813-9.254v10.094h-2.17v-10.094h2.17Zm5.088 0c1.493 0 2.711.411 3.654 1.232 1.054.915 1.582 2.184 1.582 3.808 0 1.634-.528 2.908-1.582 3.822-.934.822-2.152 1.232-3.654 1.232h-3.402v-10.094h3.402Zm-.21 8.19c.914 0 1.656-.228 2.226-.686.662-.55.994-1.372.994-2.464 0-1.082-.332-1.899-.994-2.45-.57-.457-1.312-.686-2.226-.686h-1.022v6.286h1.022Zm8.863-8.19v10.094h-2.17v-10.094h2.17Zm1.013 1.89v-1.89h8.176v1.89h-3.01v8.204h-2.156v-8.204h-3.01Zm8.434-1.89h2.352l2.17 3.85 2.212-3.85h2.338l-3.458 5.922v4.172h-2.17v-4.172l-3.444-5.922Zm16.816 0c1.008 0 1.81.299 2.408.896.588.579.882 1.344.882 2.296 0 .906-.294 1.657-.882 2.254-.635.635-1.438.952-2.408.952h-2.31v3.696h-2.17v-10.094h4.48Zm-.35 4.494c.448 0 .798-.126 1.05-.378.252-.233.378-.541.378-.924 0-.373-.126-.681-.378-.924-.262-.242-.612-.364-1.05-.364h-1.96v2.59h1.96Zm9.154-4.494c.999 0 1.802.28 2.408.84.598.56.896 1.312.896 2.254 0 1.148-.485 2.002-1.456 2.562.598.318.98.868 1.148 1.652l.336 1.54c.112.542.257.957.434 1.246h-2.38c-.121-.205-.219-.504-.294-.896l-.238-1.47c-.102-.56-.312-.956-.63-1.19-.326-.242-.826-.364-1.498-.364h-1.036v3.92h-2.17v-10.094h4.48Zm-.35 4.27c.962 0 1.442-.392 1.442-1.176 0-.793-.48-1.19-1.442-1.19h-1.96v2.366h1.96Zm5.998 4.466c-.98-.98-1.47-2.212-1.47-3.696s.49-2.711 1.47-3.682c.98-.98 2.217-1.47 3.71-1.47 1.466 0 2.693.486 3.682 1.456.971.99 1.456 2.222 1.456 3.696 0 1.494-.485 2.726-1.456 3.696-.98.98-2.207 1.47-3.682 1.47-1.493 0-2.73-.49-3.71-1.47Zm5.81-1.358c.551-.625.826-1.404.826-2.338 0-.924-.275-1.698-.826-2.324-.56-.625-1.264-.938-2.114-.938-.858 0-1.568.313-2.128.938-.55.626-.826 1.4-.826 2.324 0 .934.276 1.713.826 2.338.542.616 1.251.924 2.128.924.85 0 1.554-.308 2.114-.924Zm5.262-7.378 2.506 7.21 2.506-7.21h2.282l-3.738 10.094h-2.184l-3.724-10.094h2.352Zm10.324 0v10.094h-2.17v-10.094h2.17Zm5.087 0c1.494 0 2.712.411 3.654 1.232 1.055.915 1.582 2.184 1.582 3.808 0 1.634-.527 2.908-1.582 3.822-.933.822-2.151 1.232-3.654 1.232h-3.402v-10.094h3.402Zm-.21 8.19c.915 0 1.657-.228 2.226-.686.663-.55.994-1.372.994-2.464 0-1.082-.331-1.899-.994-2.45-.569-.457-1.311-.686-2.226-.686h-1.022v6.286h1.022Zm13.567-8.19v1.89h-4.704v1.932h3.738v1.89h-3.738v2.478h4.858v1.904h-7.028v-10.094h6.874Zm5.837 0c.998 0 1.801.28 2.408.84.597.56.896 1.312.896 2.254 0 1.148-.486 2.002-1.456 2.562.597.318.98.868 1.148 1.652l.336 1.54c.112.542.256.957.434 1.246h-2.38c-.122-.205-.22-.504-.294-.896l-.238-1.47c-.103-.56-.313-.956-.63-1.19-.327-.242-.826-.364-1.498-.364h-1.036v3.92h-2.17v-10.094h4.48Zm-.35 4.27c.961 0 1.442-.392 1.442-1.176 0-.793-.481-1.19-1.442-1.19h-1.96v2.366h1.96Zm5.605 4.942c-.756-.662-1.153-1.54-1.19-2.632h2.128c.037.486.242.892.616 1.218a1.87 1.87 0 0 0 1.316.504c.466 0 .84-.098 1.12-.294.289-.205.434-.471.434-.798 0-.513-.36-.877-1.078-1.092l-1.512-.42c-1.764-.476-2.646-1.474-2.646-2.996 0-.821.336-1.498 1.008-2.03.672-.532 1.526-.798 2.562-.798 1.11 0 2.011.28 2.702.84.709.579 1.082 1.335 1.12 2.268h-2.128c-.056-.326-.229-.606-.518-.84-.327-.242-.719-.364-1.176-.364-.896 0-1.344.304-1.344.91 0 .448.326.761.98.938l1.526.42c.849.252 1.484.57 1.904.952.541.514.812 1.232.812 2.156 0 .915-.341 1.652-1.022 2.212-.691.551-1.606.826-2.744.826-1.176 0-2.133-.326-2.87-.98Z"/></g><defs><filter id="da" x="76.807" y="-25.657" width="390.353" height="390.206" filterUnits="userSpaceOnUse" color-interpolation-filters="sRGB"><feFlood flood-opacity="0" result="BackgroundImageFix"/><feGaussianBlur in="BackgroundImageFix" stdDeviation="27.967"/><feComposite in2="SourceAlpha" operator="in" result="effect1_backgroundBlur_948_1286"/><feBlend in="SourceGraphic" in2="effect1_backgroundBlur_948_1286" result="shape"/></filter><filter id="db" x="0" y="6.445" width="348" height="212.147" filterUnits="userSpaceOnUse" color-interpolation-filters="sRGB"><feFlood flood-opacity="0" result="BackgroundImageFix"/><feColorMatrix in="SourceAlpha" values="0 0 0 0 0 0 0 0 0 0 0 0 0 0 0 0 0 0 127 0" result="hardAlpha"/><feOffset dy="4"/><feGaussianBlur stdDeviation="42"/><feComposite in2="hardAlpha" operator="out"/><feColorMatrix values="0 0 0 0 0 0 0 0 0 0 0 0 0 0 0 0 0 0 0.45 0"/><feBlend in2="BackgroundImageFix" result="effect1_dropShadow_948_1286"/><feBlend in="SourceGraphic" in2="effect1_dropShadow_948_1286" result="shape"/></filter></defs></svg><svg viewBox="0 0 114 24" id="logo" xmlns="http://www.w3.org/2000/svg"><path d="M77.826 21.514c-1.67-1.67-2.505-3.752-2.505-6.246 0-2.473.835-4.544 2.505-6.214 1.67-1.648 3.806-2.472 6.409-2.472 2.58 0 4.706.824 6.376 2.472 1.692 1.67 2.538 3.741 2.538 6.214 0 2.515-.846 4.598-2.538 6.246-1.67 1.648-3.795 2.472-6.376 2.472-2.624 0-4.76-.824-6.409-2.472Zm8.947-3.253c.629-.76.943-1.757.943-2.993 0-1.237-.325-2.234-.976-2.993-.65-.76-1.486-1.139-2.505-1.139-1.063 0-1.909.38-2.537 1.139-.63.759-.944 1.756-.944 2.993 0 1.236.315 2.234.944 2.993.607.78 1.453 1.17 2.537 1.17 1.041 0 1.887-.39 2.537-1.17ZM100.657.01v23.716h-5.368V.01h5.368Zm9.692 11.256v5.856c0 .694.217 1.258.651 1.692.412.412.932.618 1.561.618.413 0 .879-.065 1.399-.195v4.522c-.585.151-1.323.227-2.212.227-1.995 0-3.6-.51-4.815-1.529-1.301-1.106-1.951-2.657-1.951-4.652v-6.539h-2.603V6.842h2.603V1.995h5.367v4.847h3.611v4.424h-3.611ZM65.15.27c2.169 0 3.947.51 5.335 1.53 1.475 1.084 2.212 2.58 2.212 4.489 0 2.147-.878 3.687-2.635 4.62 2.56 1.105 3.84 3.025 3.84 5.758 0 2.233-.814 3.98-2.44 5.237-1.54 1.215-3.59 1.822-6.15 1.822h-9.694V.271h9.532Zm-.65 18.48c2.407 0 3.61-.814 3.61-2.44 0-1.67-1.203-2.505-3.61-2.505h-3.221v4.945h3.22Zm-.26-9.792c1.82 0 2.732-.694 2.732-2.083 0-1.388-.954-2.082-2.863-2.082h-2.83v4.165h2.96Z"/><path d="M52.885.27h2.756l.306 4.003L52.885.27Z"/><path fill-rule="evenodd" clip-rule="evenodd" d="m5.33 14.67 21.819 8.978 23.594-12.204L35.547.37l-18.41 9.057 7.301-8.26-24.43 6.19 11.968.68L5.33 14.67Zm27.72-2.347c-1.467 2.833-3.753 4.858-5.105 4.524-1.353-.334-1.259-2.9.209-5.733 1.468-2.833 3.754-4.858 5.106-4.524 1.352.334 1.258 2.9-.21 5.733Zm6.41-.5c-1.218 2.35-3.115 4.032-4.237 3.755-1.122-.277-1.044-2.407.174-4.758 1.217-2.35 3.114-4.03 4.236-3.754 1.122.277 1.044 2.407-.174 4.757Z"/></svg><svg viewBox="0 0 24 24" id="tg" xmlns="http://www.w3.org/2000/svg"><path d="M20.204 21.62a1.402 1.402 0 0 1-1.993.699l-5.399-4.193-3.465 3.195a.596.596 0 0 1-.567.077l.665-5.94.02.017.014-.118s9.716-8.84 10.112-9.217c.4-.376.268-.458.268-.458.023-.458-.719 0-.719 0L6.267 13.96l-5.36-1.825s-.824-.295-.901-.944c-.082-.644.927-.994.927-.994l21.315-8.463S24 .954 24 2.246L20.204 21.62Z"/></svg><svg viewBox="0 0 24 24" id="x" xmlns="http://www.w3.org/2000/svg"><path d="M4.5 19.5 20.25 3.75m0 15.75h-4.5L4.5 3.75H9L20.25 19.5Z"/></svg></svg>