<?xml version="1.0" encoding="utf-8"?><svg viewBox="0 0 114 24" xmlns="http://www.w3.org/2000/svg" xmlns:xlink="http://www.w3.org/1999/xlink"><style>:root>svg{display:none}:root>svg:target{display:block}</style><svg viewBox="0 0 114 24" id="logo" xmlns="http://www.w3.org/2000/svg"><path d="M77.826 21.514c-1.67-1.67-2.505-3.752-2.505-6.246 0-2.473.835-4.544 2.505-6.214 1.67-1.648 3.806-2.472 6.409-2.472 2.58 0 4.706.824 6.376 2.472 1.692 1.67 2.538 3.741 2.538 6.214 0 2.515-.846 4.598-2.538 6.246-1.67 1.648-3.795 2.472-6.376 2.472-2.624 0-4.76-.824-6.409-2.472Zm8.947-3.253c.629-.76.943-1.757.943-2.993 0-1.237-.325-2.234-.976-2.993-.65-.76-1.486-1.139-2.505-1.139-1.063 0-1.909.38-2.537 1.139-.63.759-.944 1.756-.944 2.993 0 1.236.315 2.234.944 2.993.607.78 1.453 1.17 2.537 1.17 1.041 0 1.887-.39 2.537-1.17ZM100.657.01v23.716h-5.368V.01h5.368Zm9.692 11.256v5.856c0 .694.217 1.258.651 1.692.412.412.932.618 1.561.618.413 0 .879-.065 1.399-.195v4.522c-.585.151-1.323.227-2.212.227-1.995 0-3.6-.51-4.815-1.529-1.301-1.106-1.951-2.657-1.951-4.652v-6.539h-2.603V6.842h2.603V1.995h5.367v4.847h3.611v4.424h-3.611ZM65.15.27c2.169 0 3.947.51 5.335 1.53 1.475 1.084 2.212 2.58 2.212 4.489 0 2.147-.878 3.687-2.635 4.62 2.56 1.105 3.84 3.025 3.84 5.758 0 2.233-.814 3.98-2.44 5.237-1.54 1.215-3.59 1.822-6.15 1.822h-9.694V.271h9.532Zm-.65 18.48c2.407 0 3.61-.814 3.61-2.44 0-1.67-1.203-2.505-3.61-2.505h-3.221v4.945h3.22Zm-.26-9.792c1.82 0 2.732-.694 2.732-2.083 0-1.388-.954-2.082-2.863-2.082h-2.83v4.165h2.96Z"/><path d="M52.885.27h2.756l.306 4.003L52.885.27Z"/><path fill-rule="evenodd" clip-rule="evenodd" d="m5.33 14.67 21.819 8.978 23.594-12.204L35.547.37l-18.41 9.057 7.301-8.26-24.43 6.19 11.968.68L5.33 14.67Zm27.72-2.347c-1.467 2.833-3.753 4.858-5.105 4.524-1.353-.334-1.259-2.9.209-5.733 1.468-2.833 3.754-4.858 5.106-4.524 1.352.334 1.258 2.9-.21 5.733Zm6.41-.5c-1.218 2.35-3.115 4.032-4.237 3.755-1.122-.277-1.044-2.407.174-4.758 1.217-2.35 3.114-4.03 4.236-3.754 1.122.277 1.044 2.407-.174 4.757Z"/></svg><svg viewBox="0 0 24 24" id="tg" xmlns="http://www.w3.org/2000/svg"><path d="M20.204 21.62a1.402 1.402 0 0 1-1.993.699l-5.399-4.193-3.465 3.195a.596.596 0 0 1-.567.077l.665-5.94.02.017.014-.118s9.716-8.84 10.112-9.217c.4-.376.268-.458.268-.458.023-.458-.719 0-.719 0L6.267 13.96l-5.36-1.825s-.824-.295-.901-.944c-.082-.644.927-.994.927-.994l21.315-8.463S24 .954 24 2.246L20.204 21.62Z"/></svg><svg viewBox="0 0 24 24" id="x" xmlns="http://www.w3.org/2000/svg"><path d="M4.5 19.5 20.25 3.75m0 15.75h-4.5L4.5 3.75H9L20.25 19.5Z"/></svg></svg>